<svg width="25" height="24" viewBox="0 0 25 24" fill="none" xmlns="http://www.w3.org/2000/svg">
<g opacity="0.3">
<path d="M9.26168 8.68189C8.18854 9.59373 7.79529 11.2567 8.7219 12.5908C9.58902 13.8392 10.6813 14.9313 11.9294 15.798C13.2636 16.7244 14.9265 16.3311 15.8382 15.2579L15.8484 15.2626C17.013 15.8021 18.2499 16.1718 19.5195 16.3603V19L19.5184 19L19.5156 19C11.541 19.0113 5.51101 12.9111 5.51954 5.00359V5H8.1589L8.15907 5.00117C8.34753 6.27065 8.71714 7.50654 9.25667 8.67108L9.26168 8.68189ZM19.5184 21H20.5195C21.0718 21 21.5195 20.5523 21.5195 20V15.4977C21.5195 15.0021 21.1565 14.5813 20.6663 14.5086L19.8122 14.3818C18.7318 14.2215 17.6801 13.9069 16.689 13.4478L15.9362 13.0991C15.4999 12.897 14.9816 13.034 14.7021 13.4253L14.3613 13.9024C14.0626 14.3206 13.4923 14.4484 13.0702 14.1552C12.0179 13.4245 11.0956 12.5024 10.3646 11.4499C10.0713 11.0277 10.1991 10.4574 10.6174 10.1587L11.0943 9.81807C11.4856 9.53861 11.6226 9.02021 11.4205 8.5839L11.0714 7.83033C10.6123 6.8394 10.2978 5.78774 10.1374 4.70749L10.0106 3.85316C9.9378 3.36296 9.51698 3 9.02141 3H4.51954C3.96726 3 3.51954 3.44772 3.51954 4V5.00143C3.50982 14.0079 10.4298 21.0129 19.5184 21Z" fill="white"/>
</g>
</svg>
