<svg width="25" height="24" viewBox="0 0 25 24" fill="none" xmlns="http://www.w3.org/2000/svg">
<g opacity="0.3">
<path d="M12.0195 20.8999L16.9695 15.9499C17.9484 14.9709 18.615 13.7236 18.8851 12.3658C19.1551 11.0079 19.0165 9.60052 18.4866 8.32148C17.9568 7.04244 17.0596 5.94923 15.9085 5.18009C14.7573 4.41095 13.404 4.00043 12.0195 4.00043C10.6351 4.00043 9.28175 4.41095 8.13062 5.18009C6.97949 5.94923 6.08228 7.04244 5.55245 8.32148C5.02261 9.60052 4.88395 11.0079 5.15399 12.3658C5.42402 13.7236 6.09064 14.9709 7.06954 15.9499L12.0195 20.8999ZM12.0195 23.7279L5.65554 17.3639C4.39687 16.1052 3.53972 14.5016 3.19246 12.7558C2.8452 11.0099 3.02344 9.20035 3.70463 7.55582C4.38582 5.91129 5.53937 4.50569 7.01941 3.51677C8.49945 2.52784 10.2395 2 12.0195 2C13.7996 2 15.5396 2.52784 17.0197 3.51677C18.4997 4.50569 19.6532 5.91129 20.3344 7.55582C21.0156 9.20035 21.1939 11.0099 20.8466 12.7558C20.4994 14.5016 19.6422 16.1052 18.3835 17.3639L12.0195 23.7279ZM12.0195 12.9999C12.55 12.9999 13.0587 12.7892 13.4337 12.4141C13.8088 12.0391 14.0195 11.5304 14.0195 10.9999C14.0195 10.4695 13.8088 9.96078 13.4337 9.58571C13.0587 9.21064 12.55 8.99992 12.0195 8.99992C11.4891 8.99992 10.9804 9.21064 10.6053 9.58571C10.2302 9.96078 10.0195 10.4695 10.0195 10.9999C10.0195 11.5304 10.2302 12.0391 10.6053 12.4141C10.9804 12.7892 11.4891 12.9999 12.0195 12.9999ZM12.0195 14.9999C10.9587 14.9999 9.94125 14.5785 9.19111 13.8283C8.44096 13.0782 8.01954 12.0608 8.01954 10.9999C8.01954 9.93906 8.44096 8.92164 9.19111 8.17149C9.94125 7.42135 10.9587 6.99992 12.0195 6.99992C13.0804 6.99992 14.0978 7.42135 14.848 8.17149C15.5981 8.92164 16.0195 9.93906 16.0195 10.9999C16.0195 12.0608 15.5981 13.0782 14.848 13.8283C14.0978 14.5785 13.0804 14.9999 12.0195 14.9999Z" fill="white"/>
</g>
</svg>
