<svg width="271" height="55" viewBox="0 0 271 55" fill="none" xmlns="http://www.w3.org/2000/svg">
<g clip-path="url(#clip0_11_8261)">
<path d="M265.611 4.09887V50.8943H4.07633V4.09887H265.611ZM269.668 0H0.0195312V54.9932H269.668V0Z" fill="#B9942C"/>
<path d="M177.467 39.7976V33.6493H206.822V30.7425H206.287C198.987 30.7425 191.689 30.7425 184.391 30.7425C182.109 30.8092 179.894 29.962 178.228 28.3857C175.463 25.7693 175.057 21.5269 177.552 18.6338C178.737 17.2507 180.321 16.2773 182.082 15.85C183.046 15.5966 184.037 15.459 185.033 15.4401C193.711 15.4094 202.39 15.4196 211.064 15.4196H211.457V21.4654H182.575V24.461H183.116C190.281 24.461 197.445 24.461 204.607 24.461C206.622 24.3955 208.598 25.0363 210.199 26.2748C214.286 29.4992 214.354 35.9447 208.975 38.8173C207.726 39.4849 206.332 39.8277 204.918 39.8147C195.914 39.8147 186.912 39.8147 177.91 39.8147L177.467 39.7976Z" fill="white"/>
<path d="M251.961 15.4219V21.4609H223.066V24.4496H223.631C230.78 24.4496 237.93 24.4496 245.081 24.4496C247.095 24.3839 249.07 25.0194 250.676 26.2497C254.756 29.4537 254.875 35.8957 249.486 38.7957C248.24 39.4752 246.845 39.8276 245.429 39.8204C236.414 39.8204 227.399 39.8204 218.384 39.8204H217.948V33.6721H247.316V30.7414H246.808C239.511 30.7414 232.212 30.7414 224.912 30.7414C222.583 30.7414 220.517 30.0583 218.803 28.4631C215.243 25.143 215.659 19.8965 219.679 17.1673C221.319 16.0351 223.26 15.4314 225.247 15.4355C234.057 15.4048 242.87 15.4355 251.683 15.4355L251.961 15.4219Z" fill="white"/>
<path d="M97.8631 15.2246V21.431H69.4114V33.3143H91.4601V30.6364H80.6217V24.2831H97.7752V24.7442C97.7752 27.0498 97.7245 29.3555 97.7752 31.6577C97.8867 35.859 95.3073 38.1475 92.3458 39.1176C91.1776 39.5068 89.9553 39.7051 88.7251 39.7051C83.1268 39.7051 77.5317 39.7393 71.9367 39.7051C69.3979 39.6846 67.0923 38.9024 65.2532 37.0511C64.6182 36.4432 64.1113 35.7121 63.7628 34.9016C63.4142 34.091 63.2312 33.2177 63.2248 32.334C63.1977 28.6792 63.1605 25.0243 63.2484 21.3695C63.2958 19.2381 64.4215 17.6464 66.2336 16.567C67.7433 15.6967 69.4549 15.2475 71.193 15.2656C75.882 15.2246 80.571 15.2383 85.2633 15.2349H97.8496L97.8631 15.2246Z" fill="white"/>
<path d="M107.524 30.6565V39.7765H101.148V15.3165C101.301 15.3165 101.453 15.2892 101.608 15.2892C110.232 15.2892 118.85 15.3507 127.477 15.2892C130.858 15.2687 134.448 18.0696 134.996 22.0113C135.232 23.735 134.84 25.4867 133.894 26.9402C133.814 27.0267 133.771 27.1401 133.771 27.2579C133.771 27.3756 133.814 27.4891 133.894 27.5755C134.807 28.7553 135.296 30.2141 135.28 31.712C135.263 34.2499 135.28 36.7843 135.28 39.3222V39.7628H129.022V30.6565H107.524ZM129.008 21.5195H107.524V24.4092H128.995L129.008 21.5195Z" fill="white"/>
<path d="M155.531 39.7082C152.37 39.7082 149.205 39.7082 146.044 39.7082C144.438 39.7173 142.872 39.1984 141.583 38.2299C140.294 37.2614 139.351 35.8957 138.898 34.3387C138.661 33.502 138.539 32.6367 138.533 31.7666C138.489 28.836 138.533 25.9018 138.506 22.9712C138.475 20.4503 139.554 18.5307 141.531 17.1064C143.117 15.9433 145.028 15.3211 146.988 15.3302C152.892 15.3302 158.799 15.3302 164.706 15.3302C168.029 15.3302 170.348 16.9697 171.893 19.8423C172.399 20.7755 172.666 21.8217 172.671 22.8858C172.671 26.0795 172.701 29.2697 172.671 32.4498C172.65 34.5197 171.71 36.2071 170.23 37.5734C168.733 38.989 166.748 39.7565 164.699 39.7116C161.656 39.6911 158.59 39.7116 155.537 39.7116L155.531 39.7082ZM144.837 33.4916H166.254V21.7278H144.841L144.837 33.4916Z" fill="white"/>
<path d="M32.2611 21.468V39.7694H26.0947V39.322C26.0947 33.1737 26.0947 27.0254 26.0947 20.8771C26.0947 17.8507 28.5829 15.1284 31.5714 14.8312C33.5998 14.6297 35.2901 15.3812 36.7303 16.727C38.5998 18.4826 40.3949 20.3203 42.2137 22.1306L53.3699 33.2249C53.4714 33.3308 53.5795 33.4299 53.7587 33.6006V15.3709H59.9656C59.9656 15.5144 59.9859 15.6612 59.9859 15.8047C59.9859 21.6001 59.9859 27.3977 59.9859 33.1976C59.9859 35.0284 59.5532 36.7329 58.3632 38.1743C56.7067 40.1759 53.7249 40.8351 51.4497 39.5816C50.3555 38.9905 49.3437 38.2554 48.4409 37.3955C43.1198 32.2104 37.8831 26.9844 32.5924 21.7686C32.5079 21.6866 32.42 21.6114 32.2611 21.468Z" fill="white"/>
<path d="M16.0439 39.9647V15.252H22.8053V39.9647H16.0439Z" fill="white"/>
</g>
<defs>
<clipPath id="clip0_11_8261">
<rect width="270" height="55" fill="white" transform="translate(0.0195312)"/>
</clipPath>
</defs>
</svg>
