<svg width="1920" height="206" viewBox="0 0 1920 206" fill="none" xmlns="http://www.w3.org/2000/svg">
<g opacity="0.1">
<path d="M1303.84 202.224V152.487H1541.31V128.972H1536.98C1477.93 128.972 1418.89 128.972 1359.85 128.972C1341.39 129.511 1323.47 122.658 1309.99 109.906C1287.62 88.74 1284.34 54.4211 1304.52 31.0169C1314.11 19.8284 1326.93 11.9535 1341.17 8.49684C1348.97 6.44686 1356.99 5.33389 1365.05 5.18101C1435.25 4.93232 1505.45 5.01522 1575.63 5.01522H1578.8V53.9237H1345.16V78.157H1349.54C1407.5 78.157 1465.45 78.157 1523.39 78.157C1539.69 77.627 1555.68 82.8109 1568.63 92.8295C1601.69 118.914 1602.24 171.056 1558.73 194.294C1548.62 199.694 1537.34 202.467 1525.91 202.363C1453.07 202.363 1380.24 202.363 1307.42 202.363L1303.84 202.224Z" fill="white"/>
<path d="M1906.39 5.04298V53.8962H1672.64V78.0742H1677.21C1735.04 78.0742 1792.88 78.0742 1850.73 78.0742C1867.03 77.5425 1883 82.6836 1895.99 92.6362C1929 118.555 1929.96 170.669 1886.37 194.128C1876.29 199.625 1865 202.476 1853.55 202.418C1780.62 202.418 1707.69 202.418 1634.76 202.418H1631.23V152.68H1868.81V128.972H1864.71C1805.67 128.972 1746.63 128.972 1687.57 128.972C1668.73 128.972 1652.02 123.446 1638.15 110.542C1609.36 83.6835 1612.72 41.2408 1645.24 19.1629C1658.51 10.0039 1674.21 5.11971 1690.28 5.1535C1761.55 4.90481 1832.85 5.1535 1904.14 5.1535L1906.39 5.04298Z" fill="white"/>
<path d="M660.419 3.43945V53.6467H430.256V149.778H608.621V128.115H520.943V76.7193H659.708V80.4497C659.708 99.1012 659.298 117.753 659.708 136.377C660.611 170.364 639.744 188.877 615.787 196.725C606.336 199.873 596.448 201.478 586.497 201.478C541.208 201.478 495.946 201.754 450.685 201.478C430.146 201.312 411.495 194.984 396.617 180.008C391.481 175.09 387.38 169.176 384.56 162.619C381.741 156.062 380.26 148.997 380.208 141.848C379.989 112.282 379.689 82.7155 380.4 53.1493C380.783 35.907 389.89 23.0305 404.548 14.2988C416.761 7.25818 430.608 3.62482 444.668 3.77103C482.6 3.43945 520.532 3.54998 558.492 3.52235H660.31L660.419 3.43945Z" fill="white"/>
<path d="M738.033 128.28V202.057H686.454V4.18486C687.685 4.18486 688.915 3.96379 690.173 3.96379C759.939 3.96379 829.65 4.46117 899.443 3.96379C926.791 3.798 955.835 26.4562 960.265 58.3435C962.179 72.2871 959.01 86.458 951.35 98.2163C950.71 98.9158 950.354 99.8335 950.354 100.786C950.354 101.739 950.71 102.656 951.35 103.356C958.74 112.9 962.694 124.701 962.563 136.818C962.426 157.349 962.563 177.852 962.563 198.382V201.947H911.941V128.28H738.033ZM911.832 54.3644H738.033V77.7411H911.722L911.832 54.3644Z" fill="white"/>
<path d="M1126.33 201.505C1100.76 201.505 1075.16 201.505 1049.59 201.505C1036.6 201.578 1023.93 197.381 1013.5 189.546C1003.07 181.711 995.45 170.663 991.779 158.067C989.867 151.299 988.874 144.299 988.825 137.261C988.47 113.552 988.825 89.8166 988.607 66.1083C988.36 45.716 997.085 30.1868 1013.08 18.6643C1025.91 9.25534 1041.37 4.22221 1057.22 4.29572C1104.99 4.29572 1152.77 4.29572 1200.56 4.29572C1227.44 4.29572 1246.2 17.559 1258.7 40.7975C1262.79 48.3467 1264.95 56.8096 1264.99 65.4176C1264.99 91.2534 1265.23 117.062 1264.99 142.787C1264.82 159.532 1257.22 173.182 1245.24 184.235C1233.14 195.686 1217.08 201.895 1200.5 201.532C1175.89 201.367 1151.08 201.532 1126.39 201.532L1126.33 201.505ZM1039.83 151.215H1213.08V56.0503H1039.86L1039.83 151.215Z" fill="white"/>
<path d="M129.635 53.9509V202.003H79.752V198.383C79.752 148.646 79.752 98.9081 79.752 49.1706C79.752 24.6887 99.8803 2.66608 124.056 0.262103C140.465 -1.36818 154.139 4.71085 165.79 15.5978C180.913 29.8006 195.435 44.6666 210.149 59.3115L300.398 149.06C301.219 149.917 302.094 150.718 303.543 152.1V4.62795H353.755C353.755 5.78849 353.919 6.97667 353.919 8.13721C353.919 55.0194 353.919 101.92 353.919 148.839C353.919 163.65 350.418 177.438 340.792 189.099C327.391 205.291 303.27 210.624 284.864 200.483C276.013 195.702 267.828 189.755 260.524 182.799C217.478 140.853 175.116 98.5765 132.315 56.3826C131.632 55.7194 130.921 55.1115 129.635 53.9509Z" fill="white"/>
<path d="M-0.980469 203.577V3.66016H53.7162V203.577H-0.980469Z" fill="white"/>
</g>
</svg>
