<svg width="10" height="6" viewBox="0 0 10 6" fill="none" xmlns="http://www.w3.org/2000/svg">
<path fill-rule="evenodd" clip-rule="evenodd" d="M9.93652 3C9.93652 2.79289 9.76863 2.625 9.56152 2.625L0.561523 2.625C0.354417 2.625 0.186523 2.79289 0.186523 3C0.186523 3.20711 0.354417 3.375 0.561523 3.375L9.56152 3.375C9.76863 3.375 9.93652 3.20711 9.93652 3Z" fill="#B7B1A9"/>
<path fill-rule="evenodd" clip-rule="evenodd" d="M6.79636 0.234835C6.64991 0.381282 6.64991 0.618719 6.79636 0.765165L9.03119 3L6.79636 5.23484C6.64991 5.38128 6.64991 5.61872 6.79636 5.76517C6.94281 5.91161 7.18024 5.91161 7.32669 5.76516L9.82669 3.26516C9.97313 3.11872 9.97313 2.88128 9.82669 2.73483L7.32669 0.234835C7.18024 0.0883883 6.9428 0.0883884 6.79636 0.234835Z" fill="#B7B1A9"/>
</svg>
