<svg width="17" height="16" viewBox="0 0 17 16" fill="none" xmlns="http://www.w3.org/2000/svg">
<g clip-path="url(#clip0_75_10978)">
<path d="M8.03472 0H8.66472C8.66472 0 8.66472 0 8.74472 0C9.24963 0.0637098 9.72851 0.260529 10.1323 0.570284C10.5361 0.88004 10.8502 1.29159 11.0426 1.76276C11.2349 2.23392 11.2985 2.74776 11.2268 3.2516C11.1552 3.75543 10.9508 4.23115 10.6347 4.63C10.5647 4.72 10.4947 4.81 10.3947 4.92H13.0847C13.2009 4.90445 13.3191 4.91369 13.4314 4.94711C13.5438 4.98053 13.6478 5.03738 13.7366 5.1139C13.8254 5.19043 13.897 5.28489 13.9467 5.39109C13.9963 5.49728 14.0229 5.61278 14.0247 5.73C14.2447 6.98 14.4747 8.23 14.6947 9.49C15.0281 11.31 15.3614 13.1333 15.6947 14.96C15.7354 15.1208 15.7354 15.2892 15.6947 15.45C15.6402 15.6248 15.5266 15.7753 15.3733 15.8756C15.2201 15.9759 15.0368 16.0199 14.8547 16H1.83472C1.71576 16.0021 1.59783 15.9777 1.48951 15.9284C1.38119 15.8792 1.28522 15.8064 1.20858 15.7154C1.13194 15.6244 1.07657 15.5175 1.04649 15.4024C1.01641 15.2872 1.01239 15.1669 1.03472 15.05C1.24472 13.83 1.46472 12.62 1.68472 11.41L2.68472 5.73C2.68651 5.61278 2.71311 5.49728 2.76276 5.39109C2.81242 5.28489 2.88401 5.19043 2.97282 5.1139C3.06162 5.03738 3.16563 4.98053 3.278 4.94711C3.39036 4.91369 3.50853 4.90445 3.62472 4.92H6.34472C6.3106 4.8869 6.2804 4.85 6.25472 4.81C5.93122 4.45935 5.70058 4.03335 5.58379 3.57079C5.467 3.10823 5.46778 2.6238 5.58606 2.16161C5.70434 1.69943 5.93636 1.27417 6.26099 0.924576C6.58562 0.574977 6.99255 0.31214 7.44472 0.16C7.64472 0.09 7.85472 0.05 8.03472 0ZM11.0347 11.17C11.0847 11.64 11.0347 11.73 10.6147 11.87H10.4747C10.3386 11.9118 10.1951 11.9241 10.0539 11.906C9.91261 11.888 9.77685 11.8399 9.65566 11.7651C9.53448 11.6903 9.43067 11.5905 9.35117 11.4724C9.27168 11.3542 9.21834 11.2204 9.19472 11.08C9.15955 10.8413 9.15955 10.5987 9.19472 10.36C9.19842 10.205 9.23809 10.053 9.31062 9.91602C9.38314 9.77901 9.48653 9.66074 9.61261 9.57054C9.73869 9.48034 9.88401 9.4207 10.0371 9.39631C10.1902 9.37191 10.3469 9.38345 10.4947 9.43C10.696 9.49284 10.8692 9.62362 10.9847 9.8C11.0147 9.83704 11.0518 9.86774 11.0938 9.89033C11.1358 9.91292 11.1818 9.92695 11.2293 9.93161C11.2767 9.93626 11.3246 9.93144 11.3702 9.91743C11.4157 9.90342 11.4581 9.8805 11.4947 9.85C11.5691 9.79244 11.6188 9.70871 11.6336 9.61583C11.6485 9.52295 11.6274 9.4279 11.5747 9.35C11.523 9.27634 11.4625 9.20919 11.3947 9.15C11.0622 8.88361 10.6387 8.75797 10.2147 8.8C9.92063 8.77452 9.62511 8.82889 9.35934 8.95737C9.09358 9.08585 8.86742 9.28369 8.70472 9.53C8.54186 9.78376 8.43528 10.0695 8.39215 10.3679C8.34903 10.6663 8.37036 10.9705 8.45472 11.26C8.49926 11.5015 8.60168 11.7287 8.75319 11.922C8.90471 12.1153 9.10081 12.269 9.32472 12.37C9.70463 12.5399 10.1233 12.6045 10.5367 12.557C10.9502 12.5095 11.3432 12.3516 11.6747 12.1C11.7298 12.0493 11.7681 11.983 11.7847 11.91C11.7847 11.53 11.7847 11.16 11.7847 10.78C11.7863 10.7498 11.7814 10.7197 11.7702 10.6916C11.7591 10.6635 11.742 10.6381 11.7202 10.6173C11.6983 10.5964 11.6722 10.5805 11.6437 10.5706C11.6151 10.5607 11.5848 10.5571 11.5547 10.56H10.5547C10.51 10.5519 10.4641 10.5537 10.4202 10.5652C10.3763 10.5768 10.3355 10.5979 10.3006 10.627C10.2658 10.6561 10.2377 10.6925 10.2185 10.7336C10.1992 10.7747 10.1893 10.8196 10.1893 10.865C10.1893 10.9104 10.1992 10.9553 10.2185 10.9964C10.2377 11.0375 10.2658 11.0739 10.3006 11.103C10.3355 11.1321 10.3763 11.1532 10.4202 11.1648C10.4641 11.1763 10.51 11.1781 10.5547 11.17H11.0347ZM5.87472 10.46V9.29C5.87472 9.03 5.73472 8.87 5.51472 8.87C5.46174 8.86825 5.40901 8.87791 5.36008 8.89832C5.31116 8.91873 5.26719 8.94941 5.23116 8.98829C5.19513 9.02716 5.16787 9.07333 5.15123 9.12366C5.13459 9.17399 5.12896 9.22731 5.13472 9.28V12.1C5.12896 12.1527 5.13459 12.206 5.15123 12.2563C5.16787 12.3067 5.19513 12.3528 5.23116 12.3917C5.26719 12.4306 5.31116 12.4613 5.36008 12.4817C5.40901 12.5021 5.46174 12.5117 5.51472 12.51C5.56647 12.5076 5.61718 12.4946 5.66373 12.4718C5.71027 12.4491 5.75168 12.4171 5.78539 12.3777C5.81911 12.3384 5.84443 12.2926 5.85979 12.2431C5.87515 12.1936 5.88023 12.1415 5.87472 12.09V11.52C5.87472 11.52 5.87472 11.42 5.87472 11.4L6.47472 10.84C6.72472 11.26 7.00472 11.69 7.23472 12.15C7.28033 12.2791 7.37165 12.387 7.49141 12.4533C7.61118 12.5197 7.7511 12.5398 7.88472 12.51C7.99472 12.51 8.11472 12.51 8.17472 12.38C8.20012 12.3289 8.20801 12.2709 8.19717 12.2148C8.18633 12.1588 8.15735 12.1079 8.11472 12.07L7.03472 10.43L6.94472 10.28L7.03472 10.15L7.85472 9.3C7.88773 9.27696 7.91468 9.24629 7.9333 9.2106C7.95191 9.17491 7.96163 9.13525 7.96163 9.095C7.96163 9.05475 7.95191 9.01509 7.9333 8.9794C7.91468 8.94371 7.88773 8.91304 7.85472 8.89C7.74288 8.84998 7.6227 8.83909 7.50549 8.85833C7.38828 8.87757 7.27789 8.92633 7.18472 9L5.96472 10.34L5.87472 10.46ZM9.64472 2.89C9.61647 2.57134 9.46992 2.27481 9.23393 2.05881C8.99795 1.84282 8.68963 1.72303 8.36972 1.72303C8.04981 1.72303 7.7415 1.84282 7.50551 2.05881C7.26952 2.27481 7.12297 2.57134 7.09472 2.89C7.12297 3.20866 7.26952 3.50519 7.50551 3.72119C7.7415 3.93718 8.04981 4.05697 8.36972 4.05697C8.68963 4.05697 8.99795 3.93718 9.23393 3.72119C9.46992 3.50519 9.61647 3.20866 9.64472 2.89Z" fill="#B7B1A9"/>
</g>
<defs>
<clipPath id="clip0_75_10978">
<rect width="16" height="16" fill="white" transform="translate(0.0205078)"/>
</clipPath>
</defs>
</svg>
