<svg width="21" height="21" viewBox="0 0 21 21" fill="none" xmlns="http://www.w3.org/2000/svg">
<path d="M16.072 14.617L20.355 18.899L18.94 20.314L14.658 16.031C13.0648 17.3082 11.083 18.0029 9.04102 18C4.07302 18 0.0410156 13.968 0.0410156 9C0.0410156 4.032 4.07302 0 9.04102 0C14.009 0 18.041 4.032 18.041 9C18.0439 11.042 17.3492 13.0237 16.072 14.617ZM14.066 13.875C15.3351 12.5699 16.0439 10.8204 16.041 9C16.041 5.132 12.908 2 9.04102 2C5.17302 2 2.04102 5.132 2.04102 9C2.04102 12.867 5.17302 16 9.04102 16C10.8614 16.0029 12.6109 15.2941 13.916 14.025L14.066 13.875Z" fill="#403D3C"/>
</svg>
