<svg width="25" height="24" viewBox="0 0 25 24" fill="none" xmlns="http://www.w3.org/2000/svg">
<path d="M12.0195 22C6.49668 22 2.01953 17.5228 2.01953 12C2.01953 6.47715 6.49668 2 12.0195 2C17.5424 2 22.0195 6.47715 22.0195 12C22.0135 17.5203 17.5399 21.9939 12.0195 22ZM12.0035 20H12.0195C16.4362 19.9956 20.0137 16.4127 20.0115 11.996C20.0093 7.57929 16.4282 4 12.0115 4C7.59481 4 4.01374 7.57929 4.01153 11.996C4.00932 16.4127 7.58682 19.9956 12.0035 20ZM10.0195 17L6.01953 13L7.42953 11.59L10.0195 14.17L16.6095 7.58L18.0195 9L10.0195 17Z" fill="#E35B0A"/>
</svg>
