<svg width="17" height="16" viewBox="0 0 17 16" fill="none" xmlns="http://www.w3.org/2000/svg">
<g clip-path="url(#clip0_75_10982)">
<path d="M0.030495 2.93679C0.122439 2.81371 0.222535 2.69693 0.33011 2.58724L3.02664 0.440004C3.39404 0.144973 3.85391 -0.010676 4.32497 0.000569345H14.1024C14.5737 -0.00607956 15.0302 0.16475 15.3813 0.479135C15.7325 0.79352 15.9525 1.22846 15.9978 1.69759C16.0431 2.16672 15.9103 2.63572 15.6257 3.01146C15.3412 3.38719 14.9258 3.64218 14.4619 3.72578C14.3092 3.741 14.1553 3.741 14.0025 3.72578H5.45352C5.24287 3.7216 5.03758 3.79239 4.87427 3.92552L0.879404 7.07148C0.774688 7.15574 0.651462 7.21393 0.519866 7.24126C0.2602 7.24126 0.120379 7.11143 0.0205078 6.9017L0.030495 2.93679Z" fill="#B7B1A9"/>
<path d="M5.39347 15.9804H5.20372C4.67236 15.8758 4.19412 15.5892 3.85139 15.1699C3.50866 14.7506 3.32291 14.2249 3.32613 13.6833C3.32613 12.2951 3.32613 10.8969 3.32613 9.49871C3.3198 9.42805 3.32923 9.35687 3.35375 9.29031C3.37826 9.22374 3.41723 9.16344 3.46787 9.11376C3.51851 9.06408 3.57954 9.02625 3.64656 9.00302C3.71358 8.97978 3.78493 8.9717 3.85545 8.97937H5.15378C5.27199 8.967 5.39058 8.99898 5.48654 9.0691C5.58251 9.13923 5.649 9.2425 5.67311 9.35889C5.92279 10.1279 6.18246 10.8869 6.43214 11.6659C6.43948 11.7066 6.46231 11.7429 6.49583 11.7671C6.52936 11.7913 6.57096 11.8016 6.61191 11.7958H10.8065C10.9363 11.7958 10.9663 11.7958 10.9963 11.6459C11.2459 10.807 11.4956 9.97809 11.7353 9.13917C11.7396 9.08932 11.7396 9.03921 11.7353 8.98936H14.5617V13.5835C14.5853 14.1617 14.3944 14.7283 14.0258 15.1744C13.6571 15.6205 13.1366 15.9146 12.5643 16.0003H12.5143L5.39347 15.9804Z" fill="#B7B1A9"/>
<path d="M14.5815 8.20981H11.7751V7.69047C11.8163 7.46021 11.8044 7.22359 11.7403 6.9986C11.6763 6.77362 11.5618 6.56621 11.4055 6.39214C11.3457 6.29948 11.3112 6.19271 11.3057 6.08254V4.54452C11.3057 4.54452 11.3057 4.54452 11.3057 4.47461H14.5715L14.5815 8.20981Z" fill="#B7B1A9"/>
</g>
<defs>
<clipPath id="clip0_75_10982">
<rect width="16" height="16" fill="white" transform="translate(0.0205078)"/>
</clipPath>
</defs>
</svg>
