<svg width="21" height="21" viewBox="0 0 21 21" fill="none" xmlns="http://www.w3.org/2000/svg">
<path d="M16.0505 14.617L20.3335 18.899L18.9185 20.314L14.6365 16.031C13.0433 17.3082 11.0615 18.0029 9.01953 18C4.05153 18 0.0195312 13.968 0.0195312 9C0.0195312 4.032 4.05153 0 9.01953 0C13.9875 0 18.0195 4.032 18.0195 9C18.0224 11.042 17.3278 13.0237 16.0505 14.617ZM14.0445 13.875C15.3136 12.5699 16.0224 10.8204 16.0195 9C16.0195 5.132 12.8865 2 9.01953 2C5.15153 2 2.01953 5.132 2.01953 9C2.01953 12.867 5.15153 16 9.01953 16C10.84 16.0029 12.5894 15.2941 13.8945 14.025L14.0445 13.875V13.875Z" fill="#B7B1A9" fill-opacity="0.3"/>
</svg>
