<svg width="25" height="24" viewBox="0 0 25 24" fill="none" xmlns="http://www.w3.org/2000/svg">
<path d="M8.76168 8.68189C7.68854 9.59373 7.29529 11.2567 8.2219 12.5908C9.08902 13.8392 10.1813 14.9313 11.4294 15.798C12.7636 16.7244 14.4265 16.3311 15.3382 15.2579L15.3484 15.2626C16.513 15.8021 17.7499 16.1718 19.0195 16.3603V19L19.0184 19L19.0156 19C11.041 19.0113 5.01101 12.9111 5.01954 5.00359V5H7.6589L7.65907 5.00117C7.84753 6.27065 8.21714 7.50654 8.75667 8.67108L8.76168 8.68189ZM19.0184 21H20.0195C20.5718 21 21.0195 20.5523 21.0195 20V15.4977C21.0195 15.0021 20.6565 14.5813 20.1663 14.5086L19.3122 14.3818C18.2318 14.2215 17.1801 13.9069 16.189 13.4478L15.4362 13.0991C14.9999 12.897 14.4816 13.034 14.2021 13.4253L13.8613 13.9024C13.5626 14.3206 12.9923 14.4484 12.5702 14.1552C11.5179 13.4245 10.5956 12.5024 9.86455 11.4499C9.57134 11.0277 9.69909 10.4574 10.1174 10.1587L10.5943 9.81807C10.9856 9.53861 11.1226 9.02021 10.9205 8.5839L10.5714 7.83033C10.1123 6.8394 9.79776 5.78774 9.63739 4.70749L9.51057 3.85316C9.4378 3.36296 9.01698 3 8.52141 3H4.01954C3.46726 3 3.01954 3.44772 3.01954 4V5.00143C3.00982 14.0079 9.92976 21.0129 19.0184 21Z" fill="#999999"/>
</svg>
