<svg width="21" height="21" viewBox="0 0 21 21" fill="none" xmlns="http://www.w3.org/2000/svg">
<path d="M2.01953 14V2H0.0195312V0H3.01953C3.28475 0 3.5391 0.105357 3.72664 0.292893C3.91417 0.48043 4.01953 0.734784 4.01953 1V13H16.4575L18.4575 5H6.01953V3H19.7395C19.8915 3 20.0415 3.03466 20.1781 3.10134C20.3147 3.16801 20.4344 3.26495 20.5279 3.38479C20.6214 3.50462 20.6863 3.6442 20.7178 3.79291C20.7493 3.94162 20.7465 4.09555 20.7095 4.243L18.2095 14.243C18.1554 14.4592 18.0305 14.6512 17.8547 14.7883C17.679 14.9255 17.4625 15 17.2395 15H3.01953C2.75431 15 2.49996 14.8946 2.31242 14.7071C2.12489 14.5196 2.01953 14.2652 2.01953 14ZM4.01953 21C3.4891 21 2.98039 20.7893 2.60532 20.4142C2.23024 20.0391 2.01953 19.5304 2.01953 19C2.01953 18.4696 2.23024 17.9609 2.60532 17.5858C2.98039 17.2107 3.4891 17 4.01953 17C4.54996 17 5.05867 17.2107 5.43374 17.5858C5.80882 17.9609 6.01953 18.4696 6.01953 19C6.01953 19.5304 5.80882 20.0391 5.43374 20.4142C5.05867 20.7893 4.54996 21 4.01953 21ZM16.0195 21C15.4891 21 14.9804 20.7893 14.6053 20.4142C14.2302 20.0391 14.0195 19.5304 14.0195 19C14.0195 18.4696 14.2302 17.9609 14.6053 17.5858C14.9804 17.2107 15.4891 17 16.0195 17C16.55 17 17.0587 17.2107 17.4337 17.5858C17.8088 17.9609 18.0195 18.4696 18.0195 19C18.0195 19.5304 17.8088 20.0391 17.4337 20.4142C17.0587 20.7893 16.55 21 16.0195 21Z" fill="#B7B1A9" fill-opacity="0.3"/>
</svg>
